<?xml version="1.0" encoding="UTF-8" standalone="no"?>
<!-- Created with Inkscape (http://www.inkscape.org/) -->

<svg
   version="1.1"
   id="svg1"
   width="890"
   height="828"
   viewBox="0 0 890 828"
   sodipodi:docname="janitr_mascot1_whiteoutline_tight.svg"
   inkscape:version="1.4.2 (ebf0e940, 2025-05-08)"
   xmlns:inkscape="http://www.inkscape.org/namespaces/inkscape"
   xmlns:sodipodi="http://sodipodi.sourceforge.net/DTD/sodipodi-0.dtd"
   xmlns="http://www.w3.org/2000/svg"
   xmlns:svg="http://www.w3.org/2000/svg">
  <defs
     id="defs1" />
  <sodipodi:namedview
     id="namedview1"
     pagecolor="#ffffff"
     bordercolor="#000000"
     borderopacity="0.25"
     inkscape:showpageshadow="2"
     inkscape:pageopacity="0.0"
     inkscape:pagecheckerboard="0"
     inkscape:deskcolor="#d1d1d1"
     inkscape:zoom="0.42728836"
     inkscape:cx="335.83877"
     inkscape:cy="390.83676"
     inkscape:window-width="1472"
     inkscape:window-height="893"
     inkscape:window-x="0"
     inkscape:window-y="34"
     inkscape:window-maximized="0"
     inkscape:current-layer="g1" />
  <g
     inkscape:groupmode="layer"
     inkscape:label="Image"
     id="g1"
     transform="translate(-38.579161,-85.509335)">
    <g
       id="g267"
       transform="translate(2.3936196,2.227957)">
      <g
         id="g206"
         style="stroke:none">
        <path
           id="path192"
           style="baseline-shift:baseline;display:inline;overflow:visible;vector-effect:none;fill:#ffffff;stroke:none;stroke-width:40;stroke-linecap:round;stroke-linejoin:round;stroke-dasharray:none;paint-order:stroke fill markers;enable-background:accumulate;stop-color:#000000"
           d="m 629.39844,85.513672 c -13.3532,-0.07473 -26.69016,0.816732 -36.90625,2.636719 -29.87677,5.322495 -52.99727,14.840859 -69.19336,31.859379 -9.93401,10.43843 -16.259,23.49447 -19.48438,38.18945 -23.24736,1.91383 -44.22553,5.49785 -60.37304,14.96094 -8.27374,4.84872 -16.06916,13.65705 -17.33203,25.15625 -0.41969,3.82159 -0.6676,9.58947 1.48242,15.58203 -21.78084,15.17702 -40.23646,32.96787 -56.66797,54.69922 -22.90764,30.29627 -40.6127,67.40295 -50.39453,105.3164 -6.78433,26.29539 -8.75198,40.62523 -9.2793,67.57032 -0.21883,11.18184 -0.42674,16.88874 -0.61328,19.0664 -6.19555,10.38197 -6.42503,20.78941 -7.71484,41.1875 -1.64642,26.03797 -1.10685,77.43264 1.68554,98.84766 3.07315,23.56825 7.39914,41.35373 14.10938,57.4082 -4.1532,2.85122 -8.63457,5.92718 -11.62305,7.93359 -22.30562,-7.67254 -47.05416,-6.24096 -69.55469,3.17383 -12.44768,5.20843 -29.87182,12.24779 -36.13281,14.62305 -3.23299,1.22651 -14.96892,5.65865 -25.96289,9.80469 -19.61827,7.39842 -29.71043,11.10618 -37.63281,15.16015 -7.92239,4.05397 -15.39243,12.84489 -17.63477,17.24024 -0.43072,0.84429 -0.84341,1.77637 -1.22851,2.77929 -2.34506,-2.79119 -5.56623,-5.48748 -9.06446,-6.89453 -2.66853,-1.07332 -5.04218,-1.52064 -7.07422,-1.66015 -2.03203,-0.13952 -3.722657,0.0284 -5.029293,0.18164 -8.094067,0.9494 -17.145481,8.67578 -19.908203,15.10351 -0.162359,0.37775 -0.314648,0.74941 -0.458985,1.11719 -0.816905,-0.63022 -1.645697,-1.17641 -2.46289,-1.62891 -4.397374,-2.43491 -8.417883,-3.00042 -12.09961,-2.89257 -7.363452,0.21568 -15.516151,3.24901 -20.447265,12.46289 -5.869336,10.96695 -3.952774,20.62677 -1.056641,28.74218 2.896133,8.11542 7.680613,15.54174 15.447266,21.44532 3.73393,2.83822 11.028068,5.92743 17.175781,6.83398 -4.481435,6.81578 -6.199186,15.08652 -5.634766,22.72656 0.628058,8.50146 4.775059,17.65496 11.476563,23.56055 6.556394,5.77772 14.42792,8.4448 22.197263,9.52148 3.00904,2.57313 5.36682,4.3853 10.42969,6.58985 7.09044,3.08743 11.71043,2.99323 16.88867,2.94336 5.17825,-0.0499 10.09108,-0.43069 16.21485,-2.73438 -0.64079,0.24117 -0.92255,0.37784 -0.94532,0.4336 v 0.002 0.002 h 0.002 v 0.002 c 1.5e-4,4.4e-4 0.002,0.005 0.002,0.006 l 0.002,0.002 0.002,0.002 c 0.20718,0.13215 4.17847,-0.84465 5.51367,-0.88281 3.99046,-0.11404 8.01647,-0.24898 12.30664,-1.54688 1.07021,1.84408 2.31788,3.47804 3.63476,4.79493 5.15283,5.15285 8.84552,5.61341 11.69727,6.25586 2.85175,0.64244 5.1672,0.78442 7.49805,0.76171 3.05924,-0.0298 5.81102,0.40246 9.69726,-1.01953 1.01782,-0.37242 2.1132,-0.87264 3.3125,-1.54101 -1.1993,0.66837 -2.29468,1.16859 -3.3125,1.54101 0.38218,3.52759 1.4252,6.92861 3.13086,9.67774 4.14427,6.67958 10.10097,9.88424 15.63867,11.48437 2.48181,0.71712 5.17568,1.66994 9.81055,1.74805 4.63487,0.0781 8.92066,-1.33584 11.01172,-2.13086 3.12011,-1.18627 7.56568,-3.57063 10.94726,-8.1543 C 248.87182,880.98078 250,875.28116 250,871.54688 c 0,-2.10812 -0.32461,-4.17797 -0.89648,-6.15821 15.89464,5.69228 31.94583,9.64186 47.26171,11.42188 12.84749,1.49313 23.34888,2.01049 34.0586,-1.04102 4.75874,-1.3559 9.29731,-3.75809 13.31445,-6.7793 -2.05406,2.2718 -3.76932,5.05393 -5.00976,8.42188 -1.86552,5.06506 -2.15786,12.25017 1.08593,18.50977 3.24379,6.25963 9.29999,10.13629 14.31446,11.6289 8.4916,2.5276 11.05696,1.22625 15.2832,0.66602 4.22624,-0.56024 7.66714,-0.79267 13.76367,-3.94532 6.56484,-3.39479 11.64855,-8.5408 14.16211,-15.9121 6.71387,1.81524 13.19223,1.82044 19.49023,0.75585 5.93053,-1.00246 11.93405,-2.91289 17.57422,-7.26562 8.15608,-0.3508 16.96225,-2.65986 23.92969,-9.11719 1.09924,0.70487 2.25521,1.30911 3.45899,1.79297 5.39003,2.16652 9.92657,2.58824 14.68554,2.31641 4.75898,-0.27184 9.91424,-0.15117 17.11524,-6.66797 1.62572,-1.47127 3.3137,-3.46632 4.73828,-5.85156 4.05312,1.26517 8.11639,1.67773 11.3457,1.67773 4.58137,0 9.00194,0.12735 15.47266,-2.85156 6.47072,-2.97891 13.8896,-13.81242 13.83594,-21.57227 -0.0315,-4.56126 -2.35085,-14.4542 -9.4004,-19.80078 -0.92268,-0.69979 -1.81413,-1.30507 -2.67578,-1.82812 5.82565,-2.69226 11.42516,-6.046 16.82032,-10.07422 8.31473,-6.20809 14.67706,-14.01942 20.33593,-22.4043 3.04794,-4.5162 5.85547,-8.80772 8.08008,-13.57031 l 2.17774,-0.57227 40.27734,0.004 37.40039,0.006 c 0,0 6.30002,21.94573 18.53906,34.88672 8.48072,8.96709 19.13451,15.45827 31.76172,19.68359 8.64648,2.89329 16.34487,4.09375 26.4375,4.09375 15.92398,0 30.28933,-3.47585 44.38477,-10.75586 17.13716,-8.851 31.56926,-23.16952 41.57422,-40.39844 6.46117,-11.12638 10.30673,-24.07205 12.13867,-36.92187 l -3.82032,1.92773 c 1.33416,-0.67348 2.57372,-1.55585 3.88282,-2.28711 0.0634,-0.45401 0.1742,-0.90766 0.23242,-1.36133 l -0.16992,1.32422 c 31.53543,-17.64318 55.75479,-51.6115 66.70117,-89.85937 4.33587,-15.15003 8.99199,-40.46376 11.66797,-61.66406 0.86738,-6.87177 2.27088,-16.68941 2.9414,-20.72461 1.33713,-8.0468 2.71906,-17.4195 3.78907,-25.39258 0.92783,-6.91369 1.59894,-10.76924 1.78906,-16.18945 6.10307,-9.67719 9.18267,-21.42557 9.82227,-34.19727 0.89847,-17.94066 -3.24222,-34.9785 -12.57032,-49.28711 -0.0142,-0.2416 -0.20486,-1.47872 -0.41015,-5.28906 -1.43102,-26.5608 -8.16564,-61.8423 -16.80274,-88.88867 -15.72707,-49.24811 -44.87294,-96.3317 -79.70312,-126.8711 -12.54217,-10.99707 -30.913,-23.19324 -46.62891,-31.18359 l 0.34375,0.17383 -0.10937,-4.59961 C 767.4147,173.89493 766.2553,166.8314 763.07422,157.57445 754.14515,131.59087 734.13559,112.4 705.82227,100.36937 694.34435,95.492277 680.63354,91.507494 666.40234,88.676011 c -10.28162,-2.045667 -23.6507,-3.087376 -37.0039,-3.162109 z"
           sodipodi:nodetypes="ssscsscssscssccssssscsssscssssscsscsscccccccccscssssccsssssscsscssssscsccssscsssscssccccssssscccccsssscscssscccssss" />
      </g>
      <g
         id="g37">
        <path
           style="fill:#78a7d9;fill-opacity:1;stroke:none;stroke-width:5.8;stroke-linecap:round;stroke-linejoin:round"
           d="m 882.51648,465.75926 c -10.33519,3.8525 -19.17885,10.06774 -29.68693,13.36194 -10.29395,2.91759 -8.85749,15.23264 -10.39211,23.47464 -4.75816,30.33052 -24.07252,58.3954 -52.19943,71.41539 -15.65271,7.8999 -33.26317,11.0892 -50.71884,9.81254 -19.08058,0.63427 -37.35402,-5.065 -54.70493,-12.57925 -4.01838,-2.57032 -10.96449,-2.20469 -11.13604,3.74914 -2.37721,22.40469 0.55002,45.39604 -2.70843,67.25357 -2.9737,6.8722 -11.95713,7.93635 -17.76907,11.60876 -31.89739,13.89053 -67.79034,11.40589 -101.86323,10.47081 -21.24963,-1.52905 -43.82068,-3.06424 -62.00893,-15.26566 -2.56439,-4.71096 -0.7052,-13.52706 -8.01716,-14.58096 -8.96376,1.36452 -16.21163,8.3405 -24.24699,12.28833 -23.16211,14.62452 -47.2455,28.06145 -69.07025,44.64749 -6.0613,5.78953 1.7046,12.68171 6.96019,15.33039 34.92224,23.35836 77.73993,29.86686 118.66679,34.19891 26.81433,2.85376 53.74105,3.76923 80.69422,3.07156 49.9009,-0.97925 100.13458,0.95889 149.6015,-6.9974 34.38346,-5.01059 71.43853,-14.45265 94.83424,-42.12214 23.08761,-27.08848 30.87405,-63.44677 34.51345,-97.93646 1.17647,-5.39065 -4.47215,-9.96366 -9.32407,-6.72603 -4.81653,1.68979 -9.46796,3.80449 -14.24521,5.59489 10.40664,-8.01852 26.90932,-13.32008 28.36306,-28.54283 1.71298,-12.32442 5.72995,-24.70705 4.89531,-37.19205 -1.32798,-5.2085 -7.76121,-5.04232 -11.5165,-2.72421 9.92185,-6.12425 21.63877,-14.17248 21.12448,-27.35254 -0.0544,-10.87381 1.25544,-23.5834 -5.59039,-32.76265 -1.19456,-1.08398 -2.83939,-1.68013 -4.45473,-1.49618 z"
           id="path9" />
        <path
           style="fill:#78a7d9;fill-opacity:1;stroke:none;stroke-width:5.8;stroke-linecap:round;stroke-linejoin:round"
           d="m 532.12067,184.71678 c -23.41662,0.28643 -47.18851,2.71317 -69.39676,10.4656 -4.80895,1.38917 -10.6586,6.628 -7.05002,11.87541 6.58277,6.74756 16.37544,8.93095 24.84738,12.44612 29.95563,10.18202 61.27088,18.7902 93.21326,17.05734 26.54741,-0.56315 52.5197,-7.03359 78.33825,-12.66292 4.73417,0.0665 8.7052,-5.79422 4.73307,-9.45152 -7.88603,-5.71909 -17.68713,-8.1325 -26.58587,-11.90429 -31.32628,-11.67421 -64.60136,-18.29945 -98.09931,-17.82574 z"
           id="path10" />
        <path
           style="fill:#78a7d9;fill-opacity:1;stroke:none;stroke-width:5.8;stroke-linecap:round;stroke-linejoin:round"
           d="m 625.17118,114.35078 c -26.22663,0.14816 -53.81132,4.9074 -75.39169,20.70073 -11.93524,9.30405 -19.09241,24.48801 -18.84136,39.55597 1.47543,7.27012 10.51303,7.17782 16.3304,7.97372 39.36263,3.23388 78.59705,12.51214 113.7578,31.15833 8.59144,4.87597 18.29899,7.23 28.15819,7.10087 15.31762,0.18981 31.86724,-0.0927 45.32957,-8.32015 6.84494,-4.5158 4.41268,-13.79547 4.92227,-20.69053 0.45035,-17.97859 -6.03558,-36.27316 -19.3305,-48.67418 -19.36112,-18.34453 -46.53981,-25.18821 -72.393,-27.85804 -7.49014,-0.71979 -15.01874,-0.98744 -22.54168,-0.94672 z"
           id="path11" />
        <path
           style="fill:#78a7d9;fill-opacity:1;stroke:none;stroke-width:5.80001;stroke-linecap:round;stroke-linejoin:round"
           d="m 465.87951,511.58994 c -3.48141,0.0802 -5.46994,4.39057 -3.57448,7.21384 3.83858,5.92512 8.94913,10.92339 12.81181,16.84654 3.13758,4.39389 5.46597,9.31441 6.97609,14.49277 1.04748,2.75485 4.13291,3.09936 6.6772,3.22988 9.57061,0.92668 19.03808,2.49745 28.53124,3.628 4.71886,0.17422 9.49174,-0.74205 13.55448,-3.22766 13.92387,-7.87168 27.4254,-16.46937 41.15137,-24.67588 3.02609,-1.62214 3.3873,-6.47641 0.23697,-8.14782 -3.47644,-1.5026 -7.44994,-1.10952 -11.14852,-1.61327 -25.15658,-1.71151 -50.20753,-3.53538 -75.32288,-5.92246 -6.61108,-0.49605 -13.25163,-1.49093 -19.89328,-1.82394 z"
           id="path12" />
        <path
           style="fill:#78a7d9;fill-opacity:1;stroke:none;stroke-width:5.80001;stroke-linecap:round;stroke-linejoin:round"
           d="m 488.16269,556.61108 c -2.69737,1.26066 -2.80791,4.43516 -2.42527,6.99865 0.42525,3.79696 0.0478,8.2239 2.68956,11.30171 2.43506,2.58949 6.29077,1.38649 8.7989,-0.41537 4.33685,-2.79557 8.99613,-5.22123 12.87832,-8.64374 2.57034,-2.82589 0.31189,-7.58462 -3.33757,-7.93647 -5.63789,-0.87841 -11.36042,-1.74444 -17.06924,-1.63176 -0.51157,0.10899 -1.02313,0.21798 -1.5347,0.32698 z"
           id="path13" />
        <path
           style="fill:#78a7d9;fill-opacity:1;stroke:none;stroke-width:5.80002;stroke-linecap:round;stroke-linejoin:round"
           d="m 337.64132,481.00712 c -5.14352,0.34461 -5.09708,6.4901 -5.34909,10.31155 -1.54174,29.3747 -2.16517,58.87479 -0.18716,88.24462 2.49983,25.86714 6.61286,52.19842 18.175,75.74877 1.16389,3.5311 4.97369,7.03697 8.71778,4.56436 21.50577,-12.94947 42.64602,-26.52769 63.67835,-40.23667 3.12211,-2.36548 9.18321,-4.86369 7.11569,-9.80066 -2.19056,-4.34819 -7.84807,-2.41658 -11.61162,-4.14996 -18.11449,-4.71625 -33.57157,-16.98994 -43.86814,-32.42355 -14.09254,-20.89567 -19.28527,-46.40003 -19.92423,-71.22579 -0.18455,-4.44045 0.25024,-9.71873 -4.20351,-12.30619 -3.87294,-3.07057 -7.19083,-8.38812 -12.54307,-8.72648 z"
           id="path14" />
        <path
           style="fill:#fee06b;fill-opacity:1;stroke:none;stroke-width:5.8;stroke-linecap:round;stroke-linejoin:round"
           d="m 792.82304,734.16597 c -22.71524,3.73232 -44.91882,9.4407 -67.90291,11.33653 -13.60373,1.71255 -27.47958,1.99198 -41.06879,4.25904 -5.89783,4.21189 -1.45133,12.53828 -1.59814,18.46766 1.74819,18.55863 19.08115,31.08007 36.13566,34.63301 25.67162,2.99169 52.79848,-8.31543 66.93898,-30.31475 6.31277,-10.30167 11.47249,-21.89407 13.06505,-33.91216 -0.16429,-2.81294 -2.83336,-4.81753 -5.56985,-4.46933 z"
           id="path25" />
        <path
           style="fill:#fee06b;fill-opacity:1;stroke:none;stroke-width:5.8;stroke-linecap:round;stroke-linejoin:round"
           d="m 430.82576,733.37701 c -8.2887,1.55494 -5.50446,12.27902 -4.43346,18.13281 2.92689,16.86363 13.01593,32.50139 28.62026,40.17236 24.19708,13.59076 57.26108,9.9805 76.26316,-10.89538 6.61458,-7.63596 13.42854,-16.13962 15.96539,-26.06508 -1.01847,-8.00311 -11.67045,-5.06918 -17.26988,-6.68605 -31.03309,-2.36705 -61.76046,-6.03288 -91.91974,-13.75401 -2.38573,-0.42089 -4.79213,-0.94481 -7.22573,-0.90465 z"
           id="path26" />
        <path
           style="fill:#7aa6d9;fill-opacity:1;stroke:none;stroke-width:5.8;stroke-linecap:round;stroke-linejoin:round"
           d="m 662.27694,570.9242 c -25.35936,3.15009 -50.62132,4.1145 -76.18107,3.04212 -5.29775,-0.92175 -10.8742,-1.02681 -15.42965,2.31248 -24.93569,14.73754 -49.7328,29.7897 -73.85068,45.83601 -5.12606,2.74714 -7.6619,8.43784 -6.52693,14.0998 0.0869,5.877 2.53563,12.18748 8.56041,14.18898 24.20535,9.82394 50.86301,11.25361 76.70321,10.99907 29.87041,-0.17965 61.99418,-1.35709 87.78199,-18.29464 7.06571,-4.28888 4.39601,-13.65676 5.10875,-20.48398 -0.26604,-16.26008 0.49542,-32.67523 -1.06935,-48.84096 -1.23454,-1.88193 -2.76483,-3.09545 -5.09668,-2.85888 z"
           id="path27" />
        <path
           style="fill:#7aa6d9;fill-opacity:1;stroke:none;stroke-width:5.8;stroke-linecap:round;stroke-linejoin:round"
           d="m 639.79672,536.5528 c -12.37125,5.16424 -23.55573,12.98195 -35.17895,19.66188 -4.37253,2.43516 -11.11537,6.82105 -7.95556,12.72306 4.09944,4.97351 11.61726,2.26438 17.20678,2.78104 15.98659,-1.06581 32.19365,-1.52576 47.90201,-4.79668 5.40381,-2.38835 2.04705,-8.58195 -1.20637,-11.2407 -6.06615,-5.88401 -10.76627,-12.55939 -17.05769,-18.16699 -1.0916,-0.71888 -2.39604,-1.11523 -3.71022,-0.96161 z"
           id="path28" />
        <path
           style="fill:#ac7f57;fill-opacity:1;stroke:none;stroke-width:5.80002;stroke-linecap:round;stroke-linejoin:round"
           d="m 629.99571,500.86197 c -6.76822,2.03799 -12.45698,6.70607 -18.67226,9.9878 -88.78251,53.10315 -177.20251,106.8333 -264.58704,162.21136 -3.27253,2.52033 -9.55945,4.87252 -8.04291,10.06322 2.48389,4.85695 8.2587,6.74184 12.16284,10.28428 3.69424,2.30133 7.41526,7.40254 12.24605,5.17058 44.56031,-26.99035 88.46748,-55.04936 132.95324,-82.16528 46.10526,-28.49483 92.94581,-55.91804 138.9804,-84.58649 3.72674,-1.47055 4.34053,-5.76023 2.91884,-9.11522 -1.95814,-6.38187 -1.39994,-13.28527 -3.39778,-19.59759 -1.01513,-1.52326 -2.70515,-2.45755 -4.56138,-2.25266 z"
           id="path29" />
        <path
           style="fill:#ac7f57;fill-opacity:1;stroke:none;stroke-width:5.79998;stroke-linecap:round;stroke-linejoin:round"
           d="m 790.76564,400.36377 c -5.99427,0.2874 -10.66526,4.67566 -15.78887,7.28272 -27.36157,16.38483 -54.62505,32.9451 -81.5883,49.97685 -3.17818,1.51404 -5.30036,5.85017 -2.82051,8.87133 3.00661,2.91219 7.48509,3.51439 11.1715,5.27371 4.96251,1.70063 9.75663,4.16583 14.91697,5.14976 4.51039,-0.51337 8.13082,-3.75324 12.06808,-5.76605 22.52869,-13.71199 45.0655,-27.41413 67.53992,-41.21371 4.25566,-2.83126 9.9529,-6.17776 9.79266,-12.01985 0.44869,-5.86408 -1.88226,-12.10337 -7.09532,-15.21217 -2.42152,-1.54285 -5.33106,-2.33923 -8.19613,-2.34259 z"
           id="path30" />
        <path
           style="fill:#fee06b;fill-opacity:1;stroke:none;stroke-width:5.8;stroke-linecap:round;stroke-linejoin:round"
           d="m 730.15223,220.8657 c -26.11739,9.23515 -54.72861,0.58839 -81.45734,8.66946 -43.68508,11.59702 -90.52819,17.55552 -134.85673,4.99155 -14.10471,-2.85155 -27.75188,-9.60386 -42.18162,-10.895 -21.57532,8.19412 -39.08696,24.529 -56.11155,39.68747 -36.64017,37.90091 -59.74471,87.70147 -71.16783,138.79993 -3.00994,22.70302 -6.3787,46.26775 -2.01611,68.96578 1.87826,9.45596 11.88475,14.20201 16.44117,21.06272 0.16879,32.07212 5.71111,67.33623 30.36582,90.25372 16.62274,16.83028 42.68705,25.55403 65.22246,15.74167 25.48649,-8.26417 30.86477,-44.18859 13.32601,-62.60091 -17.92794,-22.15047 -43.29838,-37.41741 -63.34772,-56.65091 4.97831,-3.78947 10.58007,3.98907 15.08805,6.04532 13.11051,8.90844 25.15554,21.864 42.20519,21.7838 44.55596,4.58392 89.58543,9.93894 134.31425,7.62495 20.65827,-12.15274 40.34838,-25.80678 59.04811,-40.72485 24.26495,-13.6264 48.6958,-27.09845 72.11282,-42.13301 20.81306,-11.81346 40.55269,-25.92253 62.6563,-35.14309 13.12101,-5.26127 24.86354,8.98338 21.35973,21.31056 -4.20664,15.4084 -22.15643,19.58444 -33.46949,28.45246 -15.1426,10.24388 -32.71641,17.82374 -46.33905,29.70131 1.70886,9.98918 15.85804,3.90552 22.99696,6.07963 6.38023,0.49156 15.74283,0.0456 20.18041,1.69591 -30.44594,10.38118 -60.84947,-5.69123 -90.80188,-11.2515 -22.27549,-4.19325 -45.83701,15.62947 -42.53812,38.79173 3.63555,31.55697 33.51088,51.97565 61.48834,61.1933 34.59297,12.61331 76.47011,8.63985 104.47518,-16.62371 20.89734,-18.20876 31.7334,-46.08234 31.87056,-73.44672 5.27477,-9.26159 18.27513,-9.71347 26.72271,-15.20996 9.31461,-2.99305 17.05173,-11.34381 15.08703,-21.67628 -6.13372,-77.62438 -36.41856,-157.50611 -98.70959,-207.21392 -11.89005,-8.69504 -24.67991,-17.77138 -38.73639,-21.81151 -4.40923,1.51003 -8.81845,3.02007 -13.22768,4.5301 z"
           id="path31" />
        <g
           id="g30">
          <g
             id="g24"
             style="fill:#fdab7d;fill-opacity:1">
            <path
               style="fill:#fdab7d;fill-opacity:1"
               d="m 417.10916,419.92839 c -1.949,-2.34837 -0.43,-5.8931 5.134,-11.981 5.3381,-5.84078 8.9545,-7.02616 9.6888,-3.17581 0.4609,2.41726 -7.5292,14.18408 -10.5734,15.57114 -2.9477,1.34306 -2.7771,1.3597 -4.2494,-0.41433 z"
               id="path20" />
            <path
               style="fill:#fdab7d;fill-opacity:1"
               d="m 429.09836,425.4154 c -1.1,-1.1 -2,-2.5869 -2,-3.30422 0,-2.37746 5.6104,-10.12553 10.8685,-15.00974 5.9405,-5.51794 9.1512,-5.91166 12.4135,-1.52221 l 1.9798,2.66384 -2.2038,4.55242 c -1.212,2.50384 -4.6822,6.81761 -7.7115,9.58617 -6.1359,5.60787 -9.9137,6.46658 -13.3465,3.03374 z"
               id="path19" />
            <path
               style="fill:#fdab7d;fill-opacity:1"
               d="m 632.45916,426.9132 c -0.9855,-2.56813 0.4174,-5.78196 5.1281,-11.74776 4.9464,-6.26421 8.4939,-7.51925 10.5252,-3.72361 1.1717,2.18929 0.1868,4.04567 -6.7505,12.72361 -3.5484,4.43882 -7.7556,5.73732 -8.9028,2.74776 z"
               id="path18" />
            <path
               style="fill:#fdab7d;fill-opacity:1"
               d="m 453.32086,426.8587 c -2.8995,-2.03091 -2.8042,-4.1001 0.4129,-8.96117 7.7493,-11.70924 13.6803,-14.32032 19.4415,-8.55905 1.6077,1.60769 2.9231,3.84098 2.9231,4.96287 0,4.07646 -13.2542,14.11405 -18.637,14.11405 -1.0549,0 -2.9181,-0.70052 -4.1405,-1.5567 z"
               id="path17" />
            <path
               style="fill:#fdab7d;fill-opacity:1"
               d="m 668.29836,430.2154 c -2.943,-2.943 0.4193,-9.75966 8.1632,-16.55 4.435,-3.88887 7.8462,-4.13152 11.1823,-0.79545 4.9825,4.98258 1.9911,11.37305 -7.7557,16.56797 -4.1595,2.21698 -9.7737,2.5936 -11.5898,0.77748 z"
               id="path16" />
            <path
               style="fill:#fdab7d;fill-opacity:1"
               d="m 647.34836,431.38424 c -4.7729,-1.91847 -1.9475,-9.416 7.0541,-18.71884 4.8581,-5.02079 9.4996,-5.79601 12.1392,-2.02749 3.0684,4.38082 1.8034,8.4577 -4.8444,15.61281 -5.2305,5.62954 -9.402,7.12195 -14.3489,5.13352 z"
               id="path1-9" />
          </g>
          <path
             d="m 568.4532,412.67392 c -1.67573,-0.64566 -4.70868,-2.22031 -6.73987,-3.49922 l -3.69308,-2.32531 -2.93799,2.09203 c -5.37911,3.83027 -16.85339,4.39217 -22.95941,1.12433 -7.67163,-4.10573 -12.16775,-18.14442 -6.87285,-21.45977 2.46901,-1.54595 5.04936,0.31389 5.8471,4.21441 0.98338,4.80819 3.47459,7.88315 7.44938,9.19495 5.2281,1.72543 11.67332,-0.87926 15.14066,-6.11877 3.83184,-5.79029 7.09998,-5.38872 11.21219,1.37767 2.77239,4.5618 6.63897,6.72576 12.01768,6.72576 3.23086,0 4.6784,-0.66208 7.40174,-3.38542 1.86198,-1.86198 3.65849,-4.75078 3.99225,-6.41957 0.80146,-4.00732 4.16686,-5.1616 6.94607,-2.38239 1.85135,1.85135 1.91948,2.42987 0.80727,6.85469 -1.5804,6.28747 -5.32023,11.09084 -10.44825,13.41957 -4.63576,2.10519 -12.52256,2.37495 -17.16289,0.58704 z m 95.61938,-11.30878 C 662.93266,399.91597 662,397.65152 662,396.33302 c 0,-3.5249 -2.37384,-8.49325 -5.38482,-11.2702 -2.00887,-1.85273 -4.01818,-2.52536 -8.37888,-2.80488 -8.1214,-0.52057 -11.97658,1.66895 -15.39247,8.74206 -3.58484,7.42295 -4.40528,8.16184 -8.66638,7.80495 -2.84457,-0.23824 -3.83215,-0.85207 -4.51478,-2.80614 -2.24647,-6.4307 4.65441,-18.5457 13.33733,-23.41467 4.78372,-2.68248 6.47674,-3.08414 13,-3.08414 6.01809,0 8.46246,0.49154 12.37106,2.48771 C 667.31303,376.5545 675,387.67454 675,396.04328 675,399.64838 671.44507,404 668.5,404 c -1.3529,0 -3.23668,-1.12108 -4.42742,-2.63486 z M 454.22251,394.4433 c -2.84513,-1.99281 -2.91576,-6.51541 -0.21451,-13.73513 2.72527,-7.28393 7.62716,-12.7066 14.63704,-16.19209 10.51266,-5.22714 19.72262,-3.59936 29.47244,5.20902 C 508.34917,378.96882 509.78547,393 500.5,393 c -3.85414,0 -5.82139,-2.18748 -6.98503,-7.76701 -0.83591,-4.00812 -6.16954,-9.8572 -9.82517,-10.77471 C 475.12249,372.30802 465,380.157 465,388.95034 c 0,5.85723 -5.93719,8.88324 -10.77749,5.49296 z"
             style="fill:#59352b;fill-opacity:1"
             id="path1-8" />
        </g>
        <path
           style="fill:#ac7f57;fill-opacity:1;stroke:none;stroke-width:5.8;stroke-linecap:round;stroke-linejoin:round"
           d="m 275.23833,691.17366 c -7.58242,0.0586 -16.27542,1.6202 -21.39694,7.66884 -3.97797,7.07099 1.45867,14.83529 5.43259,20.63902 14.25781,18.33059 34.0229,32.60869 56.34441,39.33504 11.29356,3.9248 24.77838,6.77121 35.83824,0.7017 6.45261,-3.89667 5.24642,-12.34732 5.06568,-18.77773 -1.40102,-13.71242 -13.53758,-22.69315 -24.21031,-29.64558 -12.74673,-7.76213 -25.7238,-16.36552 -40.6527,-19.06964 -5.42984,-0.81968 -10.94104,-0.87747 -16.42097,-0.85165 z"
           id="path32" />
        <path
           style="fill:#ac7f57;fill-opacity:1;stroke:none;stroke-width:5.8;stroke-linecap:round;stroke-linejoin:round"
           d="m 330.38107,684.67652 c -4.94019,0.73255 -8.82866,4.94244 -11.74798,8.61462 -1.4346,5.5557 5.60171,7.91586 9.21142,10.71757 5.24418,2.71854 10.2388,7.47657 16.3892,7.47725 4.3144,-1.64738 10.48561,-4.3706 10.4581,-9.77652 -1.92061,-5.26588 -7.83689,-7.67239 -11.90965,-11.11559 -3.86282,-2.31686 -7.65451,-5.88498 -12.40109,-5.91733 z"
           id="path33" />
        <path
           style="fill:#feedb1;fill-opacity:1;stroke:none;stroke-width:5.79999;stroke-linecap:round;stroke-linejoin:round"
           d="m 241.9681,697.95122 c -10.69173,3.84093 -20.982,8.54538 -31.56941,12.52444 -17.30971,6.88173 -34.86284,13.06392 -52.13831,19.99789 -4.963,2.18623 -11.22203,4.73349 -12.3321,10.72554 -0.1135,4.51845 2.43317,8.59499 4.29065,12.56955 1.46228,3.20293 5.62143,3.78239 8.38138,1.92916 -1.69469,1.29823 -3.47161,4.22939 -2.24673,6.67162 2.47879,4.61621 6.00012,8.69827 9.85226,12.23106 2.56054,2.29028 6.0803,0.69728 8.22255,-1.34309 2.87483,-2.12356 5.67323,-4.34753 8.50124,-6.53236 -3.61744,3.55046 -7.97166,6.58901 -10.66779,10.93927 -1.61412,4.21162 2.69424,7.22664 5.13436,9.96982 4.84665,4.59887 9.54978,9.52486 15.24062,13.08339 3.01481,1.62523 5.89708,-0.76872 7.84442,-2.90061 0.73963,-0.60783 3.71772,-3.64853 2.84088,-2.53609 -2.34169,2.83826 -5.62587,6.75869 -3.32011,10.56816 3.20489,4.49619 8.39253,7.02695 12.82559,10.12911 5.80541,3.5318 11.56006,7.39042 17.89743,9.84032 4.02863,0.96702 5.7037,-3.73611 7.67099,-6.31637 2.35649,-3.51059 4.70727,-7.00734 7.1706,-10.46882 -2.8911,5.29469 -6.70072,10.39021 -7.84731,16.41923 -0.62764,3.82843 3.11211,6.01477 6.1758,7.1097 5.7775,2.33428 11.51301,4.98577 17.58841,6.42696 4.4818,0.51525 6.40449,-4.34171 8.30921,-7.48067 1.80922,-3.25841 3.52386,-6.56813 5.23034,-9.88113 -1.96187,5.50201 -4.79029,10.87389 -5.42592,16.73534 -0.003,3.76212 3.93174,5.21473 7.01371,5.78967 6.00504,1.43287 12.01,3.36572 18.16404,3.82046 4.17447,-0.2999 4.54664,-5.40932 6.15217,-8.39433 1.00982,-2.4581 2.02509,-4.91404 3.0227,-7.37716 -1.14847,4.33237 -3.9453,8.55357 -3.23549,13.17074 1.00775,4.21804 5.94458,4.82701 9.56212,4.63058 6.80266,0.15189 14.33717,-0.32347 19.64966,-5.09825 3.9484,-5.4007 5.43913,-12.14141 7.53915,-18.39707 4.95889,-17.20423 9.53937,-34.53969 13.22052,-52.06486 0.74978,-2.92953 0.91451,-7.05778 -2.61535,-8.1487 -7.97538,-0.85176 -15.93413,-0.67568 -23.84666,-2.04854 -16.83542,-2.6418 -31.93568,-11.41912 -45.64255,-21.01732 -7.08568,-5.18338 -13.46275,-11.36667 -19.05119,-18.12531 -5.05933,-6.51146 -8.45576,-13.6891 -11.09036,-21.36479 -1.0539,-2.89896 -2.72785,-6.41631 -6.47152,-5.78654 z"
           id="path34" />
        <path
           style="fill:#feedb1;fill-opacity:1;stroke:none;stroke-width:5.8;stroke-linecap:round;stroke-linejoin:round"
           d="m 406.44409,813.72159 c -11.19057,-0.0515 -20.11231,10.14544 -20.34021,21.00665 -0.40776,1.83666 0.11031,5.22331 -2.8066,4.31806 -7.49525,0.35535 -16.28897,7.00097 -13.96184,15.25552 2.76061,7.15837 11.56298,9.21818 18.14778,6.35223 2.86604,-0.42414 6.39504,-3.96845 8.48949,-0.59529 7.65644,7.07771 20.70284,5.95059 26.97121,-2.41457 1.35413,-1.9761 2.41941,-4.0147 4.54602,-1.71474 6.62942,2.73858 17.36537,-1.41658 16.10345,-9.78026 -0.10585,-8.19787 -6.48275,-16.6989 -15.27875,-16.10781 -3.57417,-8.09159 -10.24927,-16.62672 -20.01933,-16.31543 -0.61703,-0.027 -1.23406,-0.0268 -1.85122,-0.004 z"
           id="path35" />
        <path
           style="fill:#feedb1;fill-opacity:1;stroke:none;stroke-width:5.8;stroke-linecap:round;stroke-linejoin:round"
           d="m 124.93787,798.84503 c -6.88714,0.20729 -12.04519,5.55926 -15.61851,10.85469 -5.91962,0.17258 -14.037372,0.77556 -15.996004,7.66043 -1.979366,8.09218 5.761606,15.54903 13.667654,15.35365 3.84711,-0.19071 7.1722,1.31494 9.65338,4.21848 6.20398,6.10674 15.93998,5.82404 23.28329,2.11112 6.59088,-1.02827 16.01968,1.67418 19.75363,-5.70612 3.63995,-8.47553 -5.63668,-16.01632 -13.42317,-16.5913 -3.19991,-0.27343 -2.65381,-5.21166 -4.59394,-7.16387 -3.50082,-6.08166 -9.22348,-11.30341 -16.72633,-10.73708 z"
           id="path36" />
        <path
           style="fill:#59352b;fill-opacity:1"
           d="m 359.83514,888.38171 c -4.60769,-1.37153 -2.59482,-6.83669 2.88776,-7.84055 2.07741,-0.38038 5.6538,-1.61963 7.94754,-2.7539 2.29374,-1.13426 4.89144,-1.78562 5.77268,-1.44746 4.08927,1.5692 2.65166,7.52559 -2.45353,10.16558 -3.22456,1.66749 -11.27212,2.73428 -14.15445,1.87633 z M 219.27308,874.8872 C 215.29301,873.73715 213.48722,870.82665 215,868 c 1.15144,-2.15148 1.65493,-2.29703 7,-2.02357 4.76753,0.24392 8,2.49508 8,5.57137 0,1.76528 -0.75509,2.78878 -2.5651,3.47695 -2.98233,1.13388 -3.80993,1.11993 -8.16182,-0.13755 z m 181.29323,-6.46891 c -2.16352,-0.79243 -4.70169,-2.13582 -5.64038,-2.98532 -1.5392,-1.39296 -2.30176,-1.39034 -7.77013,0.0267 -13.2882,3.44332 -24.158,-3.87487 -22.71754,-15.29478 0.94369,-7.48153 6.30477,-12.71644 14.4333,-14.09362 3.21397,-0.54453 3.39113,-0.7992 3.79009,-5.4484 0.54707,-6.37522 2.26188,-9.50531 7.95087,-14.51296 4.77971,-4.20727 12.07222,-7.11474 17.81898,-7.10429 8.26612,0.015 16.69051,5.48356 20.46773,13.28625 1.74853,3.61198 2.75185,4.4675 6.37618,5.43686 8.56056,2.2896 13.66005,9.21917 13.70263,18.62018 C 449.02468,856.64617 443.2902,862 432.21415,862 c -4.93108,0 -6.23207,0.39017 -8.16633,2.4491 -4.70864,5.01211 -15.60524,6.85402 -23.48151,3.96919 z m 15.22276,-9.43109 c 1.80899,-1.10293 4.21594,-3.57625 5.34878,-5.49626 2.18429,-3.7021 4.80981,-4.46385 6.86215,-1.99094 1.7006,2.0491 7.29761,1.88935 9.98274,-0.28494 1.95359,-1.58192 2.12006,-2.3467 1.46364,-6.72407 C 438.44836,837.83576 434.69674,834 429.1855,834 c -3.73756,0 -4.06637,-0.24716 -5.65396,-4.25 -3.45895,-8.72112 -10.35211,-13.34933 -18.14232,-12.18112 -9.14746,1.37175 -14.54445,7.29265 -15.19285,16.66768 -0.51832,7.49435 -1.36818,8.76344 -5.86847,8.76344 -8.86578,0 -14.48983,7.83807 -9.3279,13 2.58798,2.58798 8.12676,2.5792 13.8592,-0.022 5.30829,-2.4087 6.50261,-2.45434 8.26836,-0.31598 4.42563,5.35954 12.85986,6.86236 18.66151,3.32514 z m -117.11408,-2.04325 c -33.3464,-3.87553 -74.21562,-20.74845 -104.63868,-43.20023 -20.09784,-14.83192 -33.62703,-29.23558 -48.86911,-52.02781 -9.72604,-14.54382 -10.98588,-19.23068 -7.17643,-26.69782 3.63999,-7.13498 5.33636,-8.00303 44.50923,-22.77586 11,-4.14831 22.7,-8.56668 26,-9.81861 6.94081,-2.63316 24.11425,-9.58128 36.75869,-14.87203 18.37295,-7.68771 38.2374,-8.64416 55.47696,-2.67116 l 9.23565,3.19989 7.76435,-5.20285 c 4.27039,-2.86156 11.91911,-8.0828 16.99715,-11.60275 l 9.2328,-6.39991 -3.10089,-6.14281 C 332.64772,642.45423 327.99096,625.23585 324.43958,598 c -2.14769,-16.47078 -3.04888,-71.42175 -1.558,-95 1.34825,-21.32261 2.64198,-29.01884 5.61434,-33.39884 2.17331,-3.20256 2.29476,-4.42669 2.75072,-27.72582 0.51446,-26.28781 2.02653,-37.29522 8.6493,-62.96442 9.09839,-35.2645 25.85822,-70.31323 46.98182,-98.25004 18.17787,-24.04097 38.2522,-42.30877 63.76964,-58.03088 l 6.14739,-3.78761 -5.39739,-5.22779 c -5.3471,-5.17907 -6.08345,-6.96474 -5.40807,-13.1146 0.43033,-3.91843 3.08764,-7.4608 7.56508,-10.08475 9.5405,-5.59111 31.56689,-10.72199 53.40411,-12.44007 7.40218,-0.58239 13.58282,-1.18319 13.73476,-1.33513 0.15194,-0.15193 0.7696,-3.8456 1.37259,-8.20815 2.10451,-15.22584 6.53082,-24.97753 15.72027,-34.6336 12.22113,-12.84171 30.60557,-21.0394 58.21386,-25.95777 11.88949,-2.1181 55.06066,-1.82587 66.5,0.45014 13.04669,2.59581 25.78875,6.35955 35.5,10.48597 25.15047,10.6867 38.90363,24.18322 46.15967,45.29829 3.0355,8.8333 3.26381,10.46329 3.63622,25.96069 l 0.39736,16.53562 10.2994,5.23647 c 13.69806,6.96443 32.03856,19.21595 42.50735,28.39507 31.15339,27.31555 59.21493,72.12946 73.83661,117.91612 7.96565,24.94379 14.59494,59.95171 15.88418,83.8811 0.49618,9.20941 0.89583,10.99165 3.25156,14.5 7.50163,11.17209 10.48432,22.82746 9.72447,38 -0.55108,11.00404 -2.37869,17.6209 -6.79119,24.58755 -1.83841,2.90256 -2.90563,5.9277 -2.90563,8.23625 0,3.69882 -2.87849,25.14776 -5.45883,40.6762 -0.77684,4.675 -2.15084,14.35 -3.05334,21.5 -2.54591,20.16981 -7.38113,45.83023 -11.05418,58.66428 -9.95416,34.78094 -33.93177,66.45761 -60.43024,79.834 l -5.57563,2.81457 -1.13492,8.84357 c -1.26929,9.89065 -5.75999,24.03024 -9.89157,31.14497 -8.11131,13.96799 -20.31428,25.88527 -33.45587,32.67264 C 751.83957,809.72646 742.451,812 728.73754,812 c -9.54781,0 -12.10846,-0.39014 -20.09004,-3.06094 -10.97951,-3.67397 -16.68964,-7.17567 -23.57785,-14.45893 C 676.4896,785.40799 672,773.40318 672,759.53298 v -6.19404 l -57.39795,-0.008 -57.39794,-0.008 -0.59221,3.70348 c -1.60174,10.01674 -14.4514,29.05639 -24.84937,36.8199 -14.22588,10.62159 -25.93782,14.43555 -44.26253,14.41398 -14.28332,-0.0168 -23.51759,-1.80978 -33.65724,-6.53507 -18.01338,-8.39462 -29.30499,-21.21389 -34.99049,-39.7244 -1.86104,-6.05908 -2.30829,-9.84872 -2.32794,-19.72512 l -0.0243,-12.22513 -6,-2.69152 C 401.92681,723.5124 390.92272,716.8444 381.78008,709.95522 377.43333,706.67985 373.27611,704 372.5418,704 c -1.02044,0 -8.64848,5.37384 -16.31237,11.49182 -0.14882,0.11879 1.51547,3.27237 3.69841,7.00794 6.43499,11.01191 7.91141,23.90823 3.94972,34.50024 -1.13143,3.025 -3.30792,11.35 -4.83664,18.5 -5.52537,25.84273 -16.37543,62.77529 -20.59777,70.11285 -6.49452,11.28615 -16.24655,14.06478 -39.76816,11.3311 z m 22.63994,-12.01446 c 2.09822,-0.58265 4.66321,-1.90763 5.69998,-2.9444 1.03678,-1.03678 3.55014,-7.19506 5.58525,-13.68507 3.73705,-11.91755 12.57297,-46.33141 13.83908,-53.9 l 0.68586,-4.09998 -11.81255,-0.57582 C 320.48599,769.00147 309.36432,765.8891 295.1978,758.49824 269.7199,745.20608 252.31828,727.76593 245.99188,709.18337 244.64682,705.23252 243.26486,702 242.92087,702 c -0.34399,0 -5.52941,2.05515 -11.52315,4.56699 -5.99375,2.51185 -13.59772,5.61164 -16.89772,6.88843 -17.53043,6.78261 -36.38194,13.92809 -47.43004,17.97788 C 154.43235,736.06574 150,738.86507 150,742.21415 c 0,1.45922 3.26065,9.13849 4.48633,10.56593 0.13227,0.15404 3.99066,-1.53346 8.57419,-3.75 9.26822,-4.48201 10.45413,-4.73726 11.33574,-2.43984 0.83485,2.1756 0.67506,2.34948 -7.31613,7.9609 -3.8762,2.72187 -7.05495,5.2131 -7.06389,5.53607 -0.0479,1.73029 8.36746,11.97953 9.48417,11.55101 0.71163,-0.27308 5.72766,-4.07292 11.14673,-8.44408 13.45146,-10.8503 37.98599,-27.41195 40.02298,-27.01689 3.45836,0.67072 2.21472,2.82829 -4.86551,8.44107 -19.93082,15.79993 -39.77989,33.26265 -39.79491,35.01055 -0.0108,1.25434 12.48397,13.33804 16.53928,15.99518 l 2.58626,1.69458 7.68238,-7.48972 C 219.55068,773.51549 226,769.05237 226,773.78599 c 0,0.9823 -4.5502,6.9448 -10.11155,13.25 -12.87477,14.59683 -13.50068,15.52139 -11.85228,17.5076 1.71491,2.06634 16.22664,11.55649 22.59141,14.77397 l 5.12757,2.59206 6.5252,-9.80048 c 9.65312,-14.49844 22.62237,-30.27384 24.58187,-29.90064 3.38284,0.64429 2.07437,4.48065 -5.38605,15.7915 -11.45154,17.36187 -17.07519,28.00777 -15.36462,29.08611 2.3643,1.49046 18.82375,7.91389 20.27861,7.91389 0.77434,0 4.45935,-6.23298 8.42477,-14.25 10.0929,-20.40511 14.29466,-27.17957 17.10986,-27.58608 2.0628,-0.29786 2.2686,-0.0136 1.80973,2.5 -0.28476,1.55984 -1.95247,6.21108 -3.70602,10.33608 -9.71105,22.84393 -13.16817,32.29565 -12.0626,32.97892 1.3502,0.83448 20.16315,5.24497 20.53325,4.8138 0.6097,-0.7103 10.56778,-25.22014 13.93277,-34.29272 2.03993,-5.5 4.70744,-12.69724 5.9278,-15.99387 1.46956,-3.96981 2.84767,-6.11497 4.08099,-6.35249 1.67286,-0.32216 1.80107,0.13463 1.26132,4.49387 -0.8725,7.04653 -8.07666,32.5325 -12.25227,43.34454 -2.84718,7.37228 -3.31828,9.47557 -2.27106,10.13955 1.86279,1.18111 11.59396,1.05922 16.13623,-0.20211 z m 425.88098,-48.07194 c 19.18193,-6.2971 32.25572,-17.9378 40.83356,-36.35755 3.73719,-8.02511 7.73581,-22.06806 6.60554,-23.19833 -0.332,-0.332 -7.2482,1.03507 -15.36932,3.03793 -22.23099,5.48269 -49.64329,9.45185 -76.76569,11.11528 -5.5,0.33732 -11.73906,0.87123 -13.86459,1.18647 l -3.86459,0.57316 0.4301,9.14275 c 0.34094,7.24733 0.98092,10.29089 3.08703,14.68097 4.96935,10.35836 14.58607,17.79675 27.71205,21.43483 7.24477,2.00802 22.57669,1.21404 31.19591,-1.61551 z M 504.77679,793.5107 c 15.24018,-4.81437 27.4431,-15.47606 35.32007,-30.85913 2.40048,-4.68795 4.03785,-8.85019 3.63861,-9.24943 -0.39924,-0.39925 -6.01555,-1.09287 -12.48068,-1.54139 -39.78587,-2.76016 -67.03844,-6.76628 -90.75479,-13.34093 -4.95,-1.37223 -9.5625,-2.50056 -10.25,-2.5074 -1.72754,-0.0172 -1.59788,8.6733 0.26092,17.48758 5.43931,25.79277 27.28316,42.29456 56.18746,42.44642 8.19377,0.043 11.74729,-0.43572 18.07841,-2.43572 z M 346.10078,757.86865 c 5.08458,-1.69228 6.01343,-3.03658 6.60487,-9.55917 1.35414,-14.93366 -5.42265,-23.89391 -28.48426,-37.66178 -7.85323,-4.68842 -17.97823,-9.97808 -22.5,-11.75482 -7.40118,-2.90814 -9.46846,-3.26632 -20.72139,-3.59018 -11.22226,-0.32298 -13.05977,-0.12685 -17.97617,1.91877 -7.38523,3.07285 -8.2259,5.47312 -4.65144,13.28076 5.44099,11.88468 24.76829,29.50829 41.62761,37.95814 6.50065,3.25811 18.96717,7.68956 26.5,9.4199 5.72605,1.31531 15.63155,1.30944 19.60078,-0.0116 z M 696,738.48904 C 765.58586,733.15448 799.85153,723.9938 824.31513,704.18492 842.90577,689.13155 856.72503,664.27895 863.89743,633 866.1298,623.26462 870,598.62191 870,594.14315 v -3.01053 l -12.25,5.56205 c -13.8872,6.30542 -19.06808,7.52477 -20.13694,4.73936 -0.89861,-2.34175 -0.77481,-2.43927 17.59361,-13.85942 8.63867,-5.3709 16.20065,-10.36048 16.8044,-11.08795 1.23313,-1.48583 7.95605,-39.96525 7.97604,-45.65186 l 0.0129,-3.66519 -9.65243,4.95916 c -10.39636,5.34139 -12.84757,5.71545 -12.84757,1.96061 0,-1.97208 2.23801,-3.78118 12.97247,-10.48631 12.34211,-7.70932 13.11959,-8.39135 16,-14.03569 2.81423,-5.51464 3.02523,-6.67714 2.99489,-16.5 -0.0331,-10.73032 -1.86513,-19.4704 -4.90869,-23.41848 -1.37435,-1.7828 -1.54936,-1.75918 -4.74284,0.64014 -4.81758,3.61953 -12.63432,7.48792 -22.55793,11.16359 l -8.70945,3.22595 -1.25399,11.41071 c -4.02117,36.59058 -23.38359,65.36903 -54.51062,81.01939 -31.66476,15.92074 -70.65737,15.19257 -108.08768,-2.01848 l -8.28709,-3.81054 0.41908,29.7937 c 0.49385,35.10903 -0.002,41.79146 -3.40127,45.83117 -2.94869,3.50432 -15.18983,9.93134 -25.8291,13.56116 -26.59363,9.073 -69.49429,11.78942 -109.53515,6.93564 -20.8667,-2.52947 -33.12924,-5.64824 -45.68103,-11.61818 -6.61799,-3.14768 -8.30387,-5.44451 -8.49991,-11.5802 -0.0651,-2.03662 -0.40258,-4.9619 -0.75,-6.50061 l -0.63169,-2.79767 -27,16.91072 c -14.85,9.3009 -36.58162,22.8657 -48.29248,30.14401 -17.94887,11.15524 -21.10158,13.46332 -20.07679,14.69812 2.62479,3.16268 21.33765,14.75141 30.59661,18.94825 29.93981,13.57092 72.3404,21.31793 133.42572,24.37821 26.66556,1.33591 120.56146,0.36682 144.84694,-1.49494 z m -348.09605,-33.26772 3.32841,-2.77867 -3.97343,-3.58976 c -2.18539,-1.97437 -6.76573,-5.22628 -10.17853,-7.22647 l -6.2051,-3.6367 -4.49241,3.09085 c -2.47083,1.69998 -4.3453,3.53219 -4.1655,4.07159 0.43975,1.31925 18.87645,12.59875 20.82038,12.73782 0.84578,0.0605 3.03556,-1.14038 4.86618,-2.66866 z M 403.5,668.9648 c 68.14755,-42.60498 108.00272,-67.05141 176.5,-108.26187 25.575,-15.38686 48.3715,-29.25805 50.65889,-30.82487 l 4.15889,-2.84877 -1.35508,-5.26465 c -0.7453,-2.89555 -1.4918,-8.08068 -1.65889,-11.52251 -0.21144,-4.35528 -0.66821,-6.11901 -1.50238,-5.80112 C 626.9089,505.73384 470.27625,600.41874 440,619.47878 c -6.875,4.32807 -23.525,14.69855 -37,23.04551 -35.07937,21.72959 -50.74579,31.56167 -56.79192,35.64205 l -5.29191,3.57137 5.29191,3.3384 c 2.91056,1.83612 7.25937,5.03773 9.66402,7.1147 2.40466,2.07696 4.87966,3.46813 5.5,3.09148 0.62035,-0.37664 19.5779,-12.21951 42.1279,-26.31749 z m 212.97658,-13.50938 c 15.15603,-2.28043 26.35219,-5.62453 37.52342,-11.20759 8.22615,-4.1112 9.5847,-5.1501 10.13169,-7.74783 0.8275,-3.92999 1.02738,-50.53182 0.24466,-57.04455 l -0.60627,-5.04454 -12.63504,1.86128 c -13.64991,2.01078 -55.6649,2.91836 -68.16544,1.47246 l -6.53039,-0.75535 -29.96961,18.36666 c -16.48328,10.10166 -34.9196,21.4956 -40.9696,25.31985 -12.19012,7.70548 -12.28764,7.86457 -11.02333,17.98377 0.57432,4.5967 1.06581,5.46294 4.12304,7.26675 8.83132,5.21061 28.2469,9.36613 51.87546,11.10293 16.60998,1.2209 53.23095,0.34766 66.00141,-1.57384 z M 367.23682,650.25 c 41.49424,-26.12484 59.68383,-37.85109 59.72064,-38.5 0.0234,-0.4125 -1.26006,-0.75 -2.85212,-0.75 -3.74618,0 -15.3501,-3.58714 -21.10534,-6.52433 -31.43131,-16.041 -50.76897,-51.91045 -52.54309,-97.46225 l -0.46258,-11.87721 -6.00456,-5.72738 c -3.30251,-3.15006 -6.22167,-5.51026 -6.48704,-5.2449 -2.37371,2.37372 -3.48575,72.57729 -1.49429,94.33607 2.09525,22.89291 6.4238,45.84318 11.03342,58.5 3.83329,10.52522 8.02711,20 8.85258,20 0.34172,0 5.44579,-3.0375 11.34238,-6.75 z M 446.5,597.64065 c 17.03449,-4.55031 27.40071,-16.47799 28.24712,-32.50198 1.07297,-20.3132 -11.05548,-35.09626 -57.43953,-70.01165 -8.90583,-6.70382 -16.45479,-13.01543 -16.77547,-14.02581 -1.67699,-5.28374 3.91639,-9.58478 9.28416,-7.13906 2.89953,1.32112 19.76987,13.36781 30.18372,21.55345 3.575,2.81007 7.04259,5.43289 7.70575,5.82848 1.37179,0.81831 63.36299,7.06898 85.29425,8.60036 7.975,0.55687 24.625,1.28574 37,1.61973 l 22.5,0.60724 22.9919,-14.14226 c 12.64554,-7.77824 23.39968,-14.90431 23.89807,-15.83571 1.39345,-2.60404 9.19309,-9.90515 13.45694,-12.5968 2.10141,-1.32656 6.93301,-3.5002 10.73691,-4.83033 4.09654,-1.43245 14.2081,-7.00891 24.80222,-13.67824 22.59128,-14.22195 85.59282,-52.03019 92.70956,-55.63651 7.03983,-3.56735 16.16033,-4.38934 22.37368,-2.01644 11.75272,4.4884 15.63818,20.17395 8.15873,32.93666 -3.09713,5.28485 -3.81181,5.76679 -47.64356,32.12822 -16.46096,9.9 -29.94149,18.2971 -29.95673,18.66023 -0.0497,1.18271 16.95187,2.11057 29.68479,1.62006 10.63337,-0.40963 12.73895,-0.23531 14.51341,1.20157 2.98211,2.41476 1.77207,6.47459 -2.35899,7.91468 -5.77014,2.01149 -21.13055,3.33558 -30.35469,2.61664 -13.83157,-1.07806 -22.6117,-3.07922 -40.01224,-9.11959 -24.55796,-8.52497 -34.97641,-8.49651 -47.9691,0.13103 -6.78298,4.5041 -11.11279,11.78019 -12.54582,21.08283 -2.88136,18.70445 8.33306,38.22901 30.51492,53.12715 15.31287,10.28468 35.54906,17.23065 56.46787,19.38231 31.19763,3.20892 58.1605,-6.1215 78.96299,-27.32491 C 825.20168,533.24615 835,509.23351 835,488.80603 c 0,-8.49541 0.946,-12.40235 3.3997,-14.0407 0.60517,-0.40407 4.0253,-1.69445 7.6003,-2.86751 9.24162,-3.03245 25.99442,-11.2764 29.31032,-14.42342 2.75951,-2.61898 2.79864,-2.81458 2.16495,-10.8208 -6.23148,-78.72908 -35.21649,-147.43977 -80.66031,-191.21001 -15.25538,-14.69357 -25.26049,-21.95657 -42.39595,-30.77646 -11.13179,-5.72971 -11.95886,-5.92122 -15.67918,-3.63052 -10.67058,6.57015 -32.71595,9.88135 -54.37469,8.16705 L 670.5,228.10623 655,231.97985 c -67.13463,16.7777 -99.92706,17.7737 -149.05234,4.52713 -6.90379,-1.86159 -17.40055,-5.00679 -23.32614,-6.98933 l -10.7738,-3.60462 -6.42707,3.59422 c -22.86722,12.78808 -45.73344,32.17675 -62.53592,53.02531 -22.9493,28.47555 -41.89383,67.32376 -51.84788,106.32077 -6.07275,23.79123 -9.23392,56.62563 -7.07936,73.53177 1.25432,9.84229 3.86982,14.86041 10.54055,20.22323 8.8665,7.12807 8.81749,7.04993 8.12388,12.95147 -0.34873,2.96711 -0.173,10.69247 0.39049,17.16747 3.30698,37.99947 19.19512,66.14983 44.98368,79.70133 3.71327,1.95128 9.17072,4.19847 12.12766,4.99377 6.83741,1.839 19.90411,1.94713 26.37625,0.21828 z m 55.38802,-31.00403 6.38802,-4.09363 -3.38802,-0.66475 c -1.86341,-0.36561 -5.97552,-0.8623 -9.13802,-1.10377 L 490,560.33545 v 3.20728 c 0,1.764 0.27867,4.60063 0.61927,6.30362 0.71596,3.57982 0.64004,3.60145 11.26875,-3.20973 z M 628,566.99793 c 13.21767,-0.88641 25.08628,-2.21826 32.2488,-3.61881 2.69242,-0.52648 2.58852,-0.68828 -5.06611,-7.8892 -6.18638,-5.81971 -11.42051,-12.00837 -13.76748,-16.27821 -0.0871,-0.15856 -10.62451,5.91644 -23.41634,13.5 -21.0913,12.50384 -22.98965,13.84713 -20.37838,14.41998 4.44692,0.97553 14.49839,0.93127 30.37951,-0.13376 z M 540.568,543.25 c 8.76268,-5.3625 19.30179,-11.775 23.42023,-14.25 l 7.48809,-4.5 -7.48816,-0.68874 C 559.86967,523.43245 548.85,522.66073 539.5,522.09633 c -17.22862,-1.03998 -70.52903,-5.73627 -73.76041,-6.49901 -1.04163,-0.24586 0.76295,2.50754 4.41976,6.74358 7.48502,8.67065 12.5275,16.38379 14.50492,22.18719 l 1.47456,4.32759 6.68058,0.67203 c 3.67433,0.36961 10.50559,1.25096 15.18059,1.95854 15.77273,2.38728 14.811,2.6305 32.568,-8.23625 z m 179.59386,-71.8337 c 1.6844,-0.87104 12.57455,-7.47074 24.20034,-14.66601 11.62579,-7.19527 27.8878,-17.11237 36.1378,-22.038 21.16464,-12.63628 21.5008,-12.91796 21.49626,-18.01318 -0.005,-6.00528 -2.94943,-10.34014 -7.9343,-11.68242 -3.26384,-0.87887 -4.60583,-0.7868 -7.06449,0.48462 -5.15418,2.66533 -41.31969,24.47221 -65.49747,39.4933 -12.65,7.85915 -24.53268,15.21133 -26.40596,16.33817 -3.02559,1.82001 -3.19311,2.13143 -1.5,2.78863 9.92013,3.85058 22.9651,8.82492 23.20562,8.84882 0.16481,0.0164 1.6778,-0.6829 3.3622,-1.55393 z M 591.25595,231.47998 c 7.01578,-0.82603 17.59078,-2.42779 23.5,-3.55947 13.11593,-2.51184 41.57207,-8.91519 42.13928,-9.4824 0.66279,-0.6628 -13.60907,-6.8939 -28.56013,-12.46935 -46.82403,-17.46132 -96.84789,-21.96187 -142.80611,-12.848 -20.44135,4.05369 -28.41951,7.39499 -26.92938,11.27822 2.29001,5.96768 54.17371,22.98459 80.90039,26.53386 18.01401,2.39224 34.59598,2.56753 51.75595,0.54714 z M 715.66203,215.5017 c 4.31088,-0.82407 10.31297,-2.73657 13.33797,-4.25 5.2989,-2.65109 5.52904,-2.93452 6.29412,-7.7517 1.05462,-6.64015 0.10234,-22.52675 -1.79826,-30 -2.61406,-10.27859 -7.84782,-19.59792 -15.28175,-27.21093 -9.39613,-9.6225 -25.87077,-17.84241 -45.87113,-22.88709 C 619.94135,110.18475 559.19631,122.00233 542.20829,148.7189 538.16172,155.08282 535,165.11272 535,171.5857 c 0,6.19644 -0.95356,5.79282 17.5,7.4074 40.28093,3.52434 79.14282,14.4487 109.5,30.78125 7.58873,4.08283 12.02495,5.82692 16,6.29037 10.63908,1.2404 29.72013,0.95515 37.66203,-0.56302 z M 469.25,855.96884 c -3.2639,-1.31193 -3.06583,-5.70816 0.3151,-6.99359 8.07865,-3.0715 15.86886,1.60708 10.60616,6.36976 -1.96961,1.78247 -7.28356,2.086 -10.92126,0.62383 z M 180.2,852.8 c -3.49962,-3.49962 1.05752,-8.14297 7.47356,-7.61492 3.40784,0.28047 3.86317,0.63772 4.16223,3.26561 0.22339,1.96306 -0.25896,3.38557 -1.44113,4.25 -2.23119,1.63148 -8.60044,1.69353 -10.19466,0.0993 z m -59.77772,-7.21843 c -1.69275,-0.73708 -4.61775,-2.67914 -6.5,-4.31568 -2.47909,-2.15547 -4.9123,-3.16856 -8.82866,-3.6759 -10.356572,-1.34163 -16.199718,-6.49081 -16.814891,-14.81786 -0.696132,-9.42291 4.87603,-15.82206 14.116371,-16.21142 3.64327,-0.15352 4.82599,-0.79967 8.10286,-4.42678 4.61031,-5.10305 9.06952,-7.13393 15.664,-7.13393 8.46219,0 17.16242,6.3928 19.87145,14.60124 0.86183,2.61137 1.69458,3.25955 4.83233,3.7613 7.64157,1.22194 15.17704,9.12791 15.1123,15.85534 -0.036,3.74484 -3.61344,10.49703 -6.59838,12.45416 -1.92728,1.26366 -4.96301,1.89012 -9.83379,2.02931 -3.87523,0.11075 -8.84587,0.87849 -11.04587,1.70611 -4.96526,1.86787 -13.98832,1.95478 -18.07772,0.17411 z m 16.67959,-9.63354 c 3.1182,-1.59079 5.01675,-1.90283 8.44735,-1.38838 5.63976,0.84574 9.09716,-0.0304 10.50566,-2.66219 C 158.53814,827.25745 152.88202,821 146.20465,821 c -3.21163,0 -5.61808,-2.20451 -6.54961,-6 -1.99271,-8.11922 -10.5597,-14.17666 -17.02992,-12.04129 -3.42636,1.1308 -7.55172,4.92907 -9.52818,8.77272 -0.96742,1.88136 -1.92427,2.21393 -6.09911,2.11987 -9.659051,-0.21761 -13.461979,5.95877 -7.450004,12.09963 1.943194,1.98485 3.644374,2.5302 8.945894,2.86777 5.62169,0.35796 6.8374,0.78866 8.6065,3.04907 4.73857,6.05458 12.87727,7.71485 20.00165,4.08026 z m 364.75891,8.11462 c -1.91633,-1.57262 -2.15404,-2.2786 -1.26262,-3.75 1.8788,-3.10121 5.57387,-4.42066 11.24388,-4.01502 5.58474,0.39954 7.11599,1.56089 7.14265,5.41719 0.0207,2.99426 -2.78341,4.28518 -9.30816,4.28518 -3.91712,0 -6.12051,-0.54617 -7.81575,-1.93735 z M 68.89551,778.76228 c -7.945957,-6.03987 -12.334333,-18.33678 -8.860326,-24.82802 1.310664,-2.449 5.661071,-2.57643 6.290506,-0.18426 0.253257,0.9625 1.012726,3.87201 1.68771,6.46557 0.961509,3.69451 2.51383,5.92351 7.169081,10.29418 4.829288,4.53407 5.883389,6.08525 5.629678,8.28443 -0.267028,2.31462 -0.833288,2.74944 -3.916649,3.00751 -2.821731,0.23618 -4.559028,-0.42387 -8,-3.03941 z m 33.57892,-8.35451 C 97.213057,765.14639 95.045347,759.78149 95.036704,752 c -0.0086,-7.7827 1.540237,-11.38629 5.072066,-11.80056 3.7429,-0.43902 4.63659,1.37883 5.06393,10.30056 0.34974,7.30157 0.71588,8.49504 4.19392,13.67031 4.48441,6.67276 4.47529,9.19754 -0.0348,9.63634 -2.52083,0.24525 -3.89368,-0.4352 -6.85736,-3.39888 z"
           id="path1"
           sodipodi:nodetypes="ssssssssssssssssssssssssssssssssssssssssssssssssscsscsssssssscsssssssssssscsssssssssssscssssssscccssssssccsssssssssssscssssssssssssssssssscssssscsssssssssssssssssssssssscsssssssssssssssssssssssssssscssssscsssssssscssscssssssscsssssssscsscssssssscsssssscsssssssscsscssssssssssscssssssssssssssscssssssssssssssssssssssssssssscssscssssssssssscsscsssssssssssscssssscsssssscsssssssssssssssssssssssssssssssssssssssssssssssssssssssssssssssssssssssssssssssssssss" />
      </g>
    </g>
  </g>
</svg>
